<?xml version="1.0" encoding="UTF-8" standalone="no"?><svg xmlns="http://www.w3.org/2000/svg" xmlns:xlink= "http://www.w3.org/1999/xlink" width="363" height="271.5" aria-label="A chart." style="overflow: hidden;"><defs id="_ABSTRACT_RENDERER_ID_252"><clipPath id="_ABSTRACT_RENDERER_ID_253"><rect x="70" y="52" width="224" height="168"></rect></clipPath></defs><rect x="0" y="0" width="363" height="271.5" stroke="none" stroke-width="0" fill="#ffffff"></rect><g><text text-anchor="start" x="70" y="32.35" font-family="Arial" font-size="11" font-weight="bold" stroke="none" stroke-width="0" fill="#000000">Ease of use - Leg-aided hole digger</text><rect x="70" y="23" width="224" height="11" stroke="none" stroke-width="0" fill-opacity="0" fill="#ffffff"></rect></g><g><rect x="305" y="52" width="47" height="43" stroke="none" stroke-width="0" fill-opacity="0" fill="#ffffff"></rect><g><rect x="305" y="52" width="47" height="11" stroke="none" stroke-width="0" fill-opacity="0" fill="#ffffff"></rect><g><text text-anchor="start" x="331" y="61.35" font-family="Arial" font-size="11" stroke="none" stroke-width="0" fill="#222222">Ha…</text><rect x="331" y="52" width="21" height="11" stroke="none" stroke-width="0" fill-opacity="0" fill="#ffffff"></rect></g><rect x="305" y="52" width="22" height="11" stroke="none" stroke-width="0" fill="#3366cc"></rect></g><g><rect x="305" y="70" width="47" height="25" stroke="none" stroke-width="0" fill-opacity="0" fill="#ffffff"></rect><g><text text-anchor="start" x="331" y="79.35" font-family="Arial" font-size="11" stroke="none" stroke-width="0" fill="#222222">Leg</text><text text-anchor="start" x="331" y="93.35" font-family="Arial" font-size="11" stroke="none" stroke-width="0" fill="#222222">ai…</text><rect x="331" y="70" width="21" height="25" stroke="none" stroke-width="0" fill-opacity="0" fill="#ffffff"></rect></g><rect x="305" y="70" width="22" height="11" stroke="none" stroke-width="0" fill="#dc3912"></rect></g></g><g><rect x="70" y="52" width="224" height="168" stroke="none" stroke-width="0" fill-opacity="0" fill="#ffffff"></rect><g clip-path="url(https://www.rapidtables.com/tools/bar-graph.html#_ABSTRACT_RENDERER_ID_253)"><g><rect x="70" y="219" width="224" height="1" stroke="none" stroke-width="0" fill="#cccccc"></rect><rect x="70" y="186" width="224" height="1" stroke="none" stroke-width="0" fill="#cccccc"></rect><rect x="70" y="152" width="224" height="1" stroke="none" stroke-width="0" fill="#cccccc"></rect><rect x="70" y="119" width="224" height="1" stroke="none" stroke-width="0" fill="#cccccc"></rect><rect x="70" y="85" width="224" height="1" stroke="none" stroke-width="0" fill="#cccccc"></rect><rect x="70" y="52" width="224" height="1" stroke="none" stroke-width="0" fill="#cccccc"></rect><rect x="70" y="202" width="224" height="1" stroke="none" stroke-width="0" fill="#ebebeb"></rect><rect x="70" y="169" width="224" height="1" stroke="none" stroke-width="0" fill="#ebebeb"></rect><rect x="70" y="136" width="224" height="1" stroke="none" stroke-width="0" fill="#ebebeb"></rect><rect x="70" y="102" width="224" height="1" stroke="none" stroke-width="0" fill="#ebebeb"></rect><rect x="70" y="69" width="224" height="1" stroke="none" stroke-width="0" fill="#ebebeb"></rect></g><g><rect x="73" y="103" width="3" height="116" stroke="none" stroke-width="0" fill="#3366cc"></rect><rect x="87" y="137" width="3" height="82" stroke="none" stroke-width="0" fill="#3366cc"></rect><rect x="101" y="120" width="3" height="99" stroke="none" stroke-width="0" fill="#3366cc"></rect><rect x="115" y="120" width="3" height="99" stroke="none" stroke-width="0" fill="#3366cc"></rect><rect x="129" y="153" width="3" height="66" stroke="none" stroke-width="0" fill="#3366cc"></rect><rect x="143" y="153" width="3" height="66" stroke="none" stroke-width="0" fill="#3366cc"></rect><rect x="157" y="137" width="3" height="82" stroke="none" stroke-width="0" fill="#3366cc"></rect><rect x="171" y="120" width="3" height="99" stroke="none" stroke-width="0" fill="#3366cc"></rect><rect x="185" y="137" width="3" height="82" stroke="none" stroke-width="0" fill="#3366cc"></rect><rect x="199" y="153" width="3" height="66" stroke="none" stroke-width="0" fill="#3366cc"></rect><rect x="213" y="137" width="3" height="82" stroke="none" stroke-width="0" fill="#3366cc"></rect><rect x="226" y="170" width="3" height="49" stroke="none" stroke-width="0" fill="#3366cc"></rect><rect x="240" y="153" width="3" height="66" stroke="none" stroke-width="0" fill="#3366cc"></rect><rect x="254" y="120" width="3" height="99" stroke="none" stroke-width="0" fill="#3366cc"></rect><rect x="268" y="137" width="3" height="82" stroke="none" stroke-width="0" fill="#3366cc"></rect><rect x="282" y="120" width="3" height="99" stroke="none" stroke-width="0" fill="#3366cc"></rect><rect x="77" y="70" width="3" height="149" stroke="none" stroke-width="0" fill="#dc3912"></rect><rect x="91" y="86" width="3" height="133" stroke="none" stroke-width="0" fill="#dc3912"></rect><rect x="105" y="86" width="3" height="133" stroke="none" stroke-width="0" fill="#dc3912"></rect><rect x="119" y="86" width="3" height="133" stroke="none" stroke-width="0" fill="#dc3912"></rect><rect x="133" y="86" width="3" height="133" stroke="none" stroke-width="0" fill="#dc3912"></rect><rect x="147" y="103" width="3" height="116" stroke="none" stroke-width="0" fill="#dc3912"></rect><rect x="161" y="103" width="3" height="116" stroke="none" stroke-width="0" fill="#dc3912"></rect><rect x="175" y="86" width="3" height="133" stroke="none" stroke-width="0" fill="#dc3912"></rect><rect x="189" y="70" width="3" height="149" stroke="none" stroke-width="0" fill="#dc3912"></rect><rect x="203" y="103" width="3" height="116" stroke="none" stroke-width="0" fill="#dc3912"></rect><rect x="217" y="70" width="3" height="149" stroke="none" stroke-width="0" fill="#dc3912"></rect><rect x="230" y="86" width="3" height="133" stroke="none" stroke-width="0" fill="#dc3912"></rect><rect x="244" y="120" width="3" height="99" stroke="none" stroke-width="0" fill="#dc3912"></rect><rect x="258" y="86" width="3" height="133" stroke="none" stroke-width="0" fill="#dc3912"></rect><rect x="272" y="120" width="3" height="99" stroke="none" stroke-width="0" fill="#dc3912"></rect><rect x="286" y="103" width="3" height="116" stroke="none" stroke-width="0" fill="#dc3912"></rect></g><g><rect x="70" y="219" width="224" height="1" stroke="none" stroke-width="0" fill="#333333"></rect></g></g><g></g><g><g><text text-anchor="middle" x="77.46875" y="234.51666666666665" font-family="Arial" font-size="11" stroke="none" stroke-width="0" fill="#222222">A</text></g><g><text text-anchor="middle" x="91.40625" y="248.51666666666665" font-family="Arial" font-size="11" stroke="none" stroke-width="0" fill="#222222">B</text></g><g><text text-anchor="middle" x="105.34375" y="234.51666666666665" font-family="Arial" font-size="11" stroke="none" stroke-width="0" fill="#222222">C</text></g><g><text text-anchor="middle" x="119.28125" y="248.51666666666665" font-family="Arial" font-size="11" stroke="none" stroke-width="0" fill="#222222">D</text></g><g><text text-anchor="middle" x="133.21875" y="234.51666666666665" font-family="Arial" font-size="11" stroke="none" stroke-width="0" fill="#222222">E</text></g><g><text text-anchor="middle" x="147.15625" y="248.51666666666665" font-family="Arial" font-size="11" stroke="none" stroke-width="0" fill="#222222">F</text></g><g><text text-anchor="middle" x="161.09375" y="234.51666666666665" font-family="Arial" font-size="11" stroke="none" stroke-width="0" fill="#222222">G</text></g><g><text text-anchor="middle" x="175.03125" y="248.51666666666665" font-family="Arial" font-size="11" stroke="none" stroke-width="0" fill="#222222">H</text></g><g><text text-anchor="middle" x="188.96875" y="234.51666666666665" font-family="Arial" font-size="11" stroke="none" stroke-width="0" fill="#222222">I</text></g><g><text text-anchor="middle" x="202.90625" y="248.51666666666665" font-family="Arial" font-size="11" stroke="none" stroke-width="0" fill="#222222">J</text></g><g><text text-anchor="middle" x="216.84375" y="234.51666666666665" font-family="Arial" font-size="11" stroke="none" stroke-width="0" fill="#222222">K</text></g><g><text text-anchor="middle" x="230.78125" y="248.51666666666665" font-family="Arial" font-size="11" stroke="none" stroke-width="0" fill="#222222">L</text></g><g><text text-anchor="middle" x="244.71875" y="234.51666666666665" font-family="Arial" font-size="11" stroke="none" stroke-width="0" fill="#222222">M</text></g><g><text text-anchor="middle" x="258.65625" y="248.51666666666665" font-family="Arial" font-size="11" stroke="none" stroke-width="0" fill="#222222">N</text></g><g><text text-anchor="middle" x="272.59375" y="234.51666666666665" font-family="Arial" font-size="11" stroke="none" stroke-width="0" fill="#222222">O</text></g><g><text text-anchor="middle" x="286.53125" y="248.51666666666665" font-family="Arial" font-size="11" stroke="none" stroke-width="0" fill="#222222">P</text></g><g><text text-anchor="end" x="59" y="223.35" font-family="Arial" font-size="11" stroke="none" stroke-width="0" fill="#444444">0</text></g><g><text text-anchor="end" x="59" y="189.95" font-family="Arial" font-size="11" stroke="none" stroke-width="0" fill="#444444">2</text></g><g><text text-anchor="end" x="59" y="156.54999999999998" font-family="Arial" font-size="11" stroke="none" stroke-width="0" fill="#444444">4</text></g><g><text text-anchor="end" x="59" y="123.14999999999999" font-family="Arial" font-size="11" stroke="none" stroke-width="0" fill="#444444">6</text></g><g><text text-anchor="end" x="59" y="89.75" font-family="Arial" font-size="11" stroke="none" stroke-width="0" fill="#444444">8</text></g><g><text text-anchor="end" x="59" y="56.35" font-family="Arial" font-size="11" stroke="none" stroke-width="0" fill="#444444">10</text></g></g></g><g><g><text text-anchor="middle" x="182" y="264.68333333333334" font-family="Arial" font-size="11" font-style="italic" stroke="none" stroke-width="0" fill="#222222">Participant</text><rect x="70" y="255.33333333333331" width="224" height="11" stroke="none" stroke-width="0" fill-opacity="0" fill="#ffffff"></rect></g><g><text text-anchor="middle" x="27.35" y="136" font-family="Arial" font-size="11" font-style="italic" transform="rotate(-90 27.35 136)" stroke="none" stroke-width="0" fill="#222222">Ease of use</text><path d="M17.999999999999993,220L18.000000000000004,52L29.000000000000004,52L28.999999999999993,220Z" stroke="none" stroke-width="0" fill-opacity="0" fill="#ffffff"></path></g></g><g></g></svg>